<mxfile host="app.diagrams.net" modified="2023-09-22T08:43:16.329Z" agent="Mozilla/5.0 (Macintosh; Intel Mac OS X 10_15_7) AppleWebKit/537.36 (KHTML, like Gecko) Chrome/117.0.0.0 Safari/537.36" etag="iExwZe2n6U3ryQyjFt8n" version="21.6.5" type="github">
  <diagram name="第 1 页" id="1_S_TI26dAkAbEfhSLB5">
    <mxGraphModel dx="2507" dy="1050" grid="1" gridSize="10" guides="1" tooltips="1" connect="1" arrows="1" fold="1" page="1" pageScale="1" pageWidth="827" pageHeight="1169" math="0" shadow="0">
      <root>
        <mxCell id="0" />
        <mxCell id="1" parent="0" />
        <mxCell id="KWCue2gvfJKScfYQxguB-8" style="edgeStyle=orthogonalEdgeStyle;rounded=0;orthogonalLoop=1;jettySize=auto;html=1;entryX=0.5;entryY=0;entryDx=0;entryDy=0;" parent="1" source="KWCue2gvfJKScfYQxguB-1" target="KWCue2gvfJKScfYQxguB-4" edge="1">
          <mxGeometry relative="1" as="geometry" />
        </mxCell>
        <mxCell id="KWCue2gvfJKScfYQxguB-1" value="T天下载T-1数据" style="rounded=1;whiteSpace=wrap;html=1;" parent="1" vertex="1">
          <mxGeometry x="170" y="150" width="120" height="50" as="geometry" />
        </mxCell>
        <mxCell id="KWCue2gvfJKScfYQxguB-7" value="" style="edgeStyle=orthogonalEdgeStyle;rounded=0;orthogonalLoop=1;jettySize=auto;html=1;" parent="1" source="KWCue2gvfJKScfYQxguB-4" edge="1">
          <mxGeometry relative="1" as="geometry">
            <mxPoint x="370" y="320" as="targetPoint" />
          </mxGeometry>
        </mxCell>
        <mxCell id="KWCue2gvfJKScfYQxguB-9" value="" style="edgeStyle=orthogonalEdgeStyle;rounded=0;orthogonalLoop=1;jettySize=auto;html=1;" parent="1" source="KWCue2gvfJKScfYQxguB-4" target="KWCue2gvfJKScfYQxguB-5" edge="1">
          <mxGeometry relative="1" as="geometry" />
        </mxCell>
        <mxCell id="KWCue2gvfJKScfYQxguB-4" value="创建下载请求" style="rounded=1;whiteSpace=wrap;html=1;fillColor=#fff2cc;strokeColor=#d6b656;" parent="1" vertex="1">
          <mxGeometry x="170" y="290" width="120" height="60" as="geometry" />
        </mxCell>
        <mxCell id="g8CfFO-CPbi9eOVrTbeS-16" value="" style="edgeStyle=orthogonalEdgeStyle;rounded=0;orthogonalLoop=1;jettySize=auto;html=1;" parent="1" source="KWCue2gvfJKScfYQxguB-5" target="g8CfFO-CPbi9eOVrTbeS-15" edge="1">
          <mxGeometry relative="1" as="geometry" />
        </mxCell>
        <mxCell id="g8CfFO-CPbi9eOVrTbeS-35" value="" style="edgeStyle=orthogonalEdgeStyle;rounded=0;orthogonalLoop=1;jettySize=auto;html=1;" parent="1" source="KWCue2gvfJKScfYQxguB-5" target="g8CfFO-CPbi9eOVrTbeS-34" edge="1">
          <mxGeometry relative="1" as="geometry" />
        </mxCell>
        <mxCell id="KWCue2gvfJKScfYQxguB-5" value="扫描下载请求(初始)" style="rounded=1;whiteSpace=wrap;html=1;fillColor=#fff2cc;strokeColor=#d6b656;" parent="1" vertex="1">
          <mxGeometry x="170" y="570" width="120" height="60" as="geometry" />
        </mxCell>
        <mxCell id="g8CfFO-CPbi9eOVrTbeS-4" value="" style="edgeStyle=orthogonalEdgeStyle;rounded=0;orthogonalLoop=1;jettySize=auto;html=1;" parent="1" source="g8CfFO-CPbi9eOVrTbeS-2" target="g8CfFO-CPbi9eOVrTbeS-3" edge="1">
          <mxGeometry relative="1" as="geometry" />
        </mxCell>
        <mxCell id="g8CfFO-CPbi9eOVrTbeS-5" value="不存在" style="edgeLabel;html=1;align=center;verticalAlign=middle;resizable=0;points=[];" parent="g8CfFO-CPbi9eOVrTbeS-4" vertex="1" connectable="0">
          <mxGeometry x="0.1143" y="-2" relative="1" as="geometry">
            <mxPoint as="offset" />
          </mxGeometry>
        </mxCell>
        <mxCell id="g8CfFO-CPbi9eOVrTbeS-8" style="edgeStyle=orthogonalEdgeStyle;rounded=0;orthogonalLoop=1;jettySize=auto;html=1;entryX=0.5;entryY=0;entryDx=0;entryDy=0;" parent="1" source="g8CfFO-CPbi9eOVrTbeS-2" target="g8CfFO-CPbi9eOVrTbeS-3" edge="1">
          <mxGeometry relative="1" as="geometry">
            <mxPoint x="410" y="200" as="targetPoint" />
            <Array as="points">
              <mxPoint x="410" y="260" />
              <mxPoint x="655" y="260" />
            </Array>
          </mxGeometry>
        </mxCell>
        <mxCell id="g8CfFO-CPbi9eOVrTbeS-10" value="存在且状态失败" style="edgeLabel;html=1;align=center;verticalAlign=middle;resizable=0;points=[];" parent="g8CfFO-CPbi9eOVrTbeS-8" vertex="1" connectable="0">
          <mxGeometry x="0.1054" y="-1" relative="1" as="geometry">
            <mxPoint as="offset" />
          </mxGeometry>
        </mxCell>
        <mxCell id="g8CfFO-CPbi9eOVrTbeS-62" value="" style="edgeStyle=orthogonalEdgeStyle;rounded=0;orthogonalLoop=1;jettySize=auto;html=1;" parent="1" source="g8CfFO-CPbi9eOVrTbeS-2" edge="1">
          <mxGeometry relative="1" as="geometry">
            <mxPoint x="390" y="150" as="targetPoint" />
            <Array as="points">
              <mxPoint x="390" y="230" />
              <mxPoint x="390" y="230" />
            </Array>
          </mxGeometry>
        </mxCell>
        <mxCell id="g8CfFO-CPbi9eOVrTbeS-63" value="存在且状态非失败" style="edgeLabel;html=1;align=center;verticalAlign=middle;resizable=0;points=[];" parent="g8CfFO-CPbi9eOVrTbeS-62" vertex="1" connectable="0">
          <mxGeometry x="0.2078" y="-2" relative="1" as="geometry">
            <mxPoint as="offset" />
          </mxGeometry>
        </mxCell>
        <mxCell id="g8CfFO-CPbi9eOVrTbeS-2" value="查询该时间内是否已经存在下载请求" style="rhombus;whiteSpace=wrap;html=1;" parent="1" vertex="1">
          <mxGeometry x="370" y="280" width="100" height="80" as="geometry" />
        </mxCell>
        <mxCell id="g8CfFO-CPbi9eOVrTbeS-7" value="" style="edgeStyle=orthogonalEdgeStyle;rounded=0;orthogonalLoop=1;jettySize=auto;html=1;" parent="1" source="g8CfFO-CPbi9eOVrTbeS-3" target="g8CfFO-CPbi9eOVrTbeS-6" edge="1">
          <mxGeometry relative="1" as="geometry" />
        </mxCell>
        <mxCell id="g8CfFO-CPbi9eOVrTbeS-12" value="" style="edgeStyle=orthogonalEdgeStyle;rounded=0;orthogonalLoop=1;jettySize=auto;html=1;" parent="1" source="g8CfFO-CPbi9eOVrTbeS-3" target="g8CfFO-CPbi9eOVrTbeS-6" edge="1">
          <mxGeometry relative="1" as="geometry" />
        </mxCell>
        <mxCell id="g8CfFO-CPbi9eOVrTbeS-14" value="" style="edgeStyle=orthogonalEdgeStyle;rounded=0;orthogonalLoop=1;jettySize=auto;html=1;" parent="1" source="g8CfFO-CPbi9eOVrTbeS-3" target="g8CfFO-CPbi9eOVrTbeS-13" edge="1">
          <mxGeometry relative="1" as="geometry">
            <Array as="points">
              <mxPoint x="700" y="160" />
            </Array>
          </mxGeometry>
        </mxCell>
        <mxCell id="g8CfFO-CPbi9eOVrTbeS-3" value="请求支付宝创建下载请求" style="shape=parallelogram;perimeter=parallelogramPerimeter;whiteSpace=wrap;html=1;fixedSize=1;fillColor=#f8cecc;strokeColor=#b85450;" parent="1" vertex="1">
          <mxGeometry x="580" y="290" width="150" height="60" as="geometry" />
        </mxCell>
        <mxCell id="g8CfFO-CPbi9eOVrTbeS-6" value="保存下载任务(初始)" style="shape=parallelogram;perimeter=parallelogramPerimeter;whiteSpace=wrap;html=1;fixedSize=1;" parent="1" vertex="1">
          <mxGeometry x="780" y="290" width="160" height="60" as="geometry" />
        </mxCell>
        <mxCell id="g8CfFO-CPbi9eOVrTbeS-13" value="更新下载任务(初始).重试次数,下载批次" style="shape=parallelogram;perimeter=parallelogramPerimeter;whiteSpace=wrap;html=1;fixedSize=1;" parent="1" vertex="1">
          <mxGeometry x="780" y="130" width="270" height="60" as="geometry" />
        </mxCell>
        <mxCell id="g8CfFO-CPbi9eOVrTbeS-17" style="edgeStyle=orthogonalEdgeStyle;rounded=0;orthogonalLoop=1;jettySize=auto;html=1;" parent="1" source="g8CfFO-CPbi9eOVrTbeS-15" edge="1">
          <mxGeometry relative="1" as="geometry">
            <mxPoint x="620" y="600" as="targetPoint" />
          </mxGeometry>
        </mxCell>
        <mxCell id="g8CfFO-CPbi9eOVrTbeS-15" value="请求支付宝查询下载地址" style="shape=parallelogram;perimeter=parallelogramPerimeter;whiteSpace=wrap;html=1;fixedSize=1;rounded=1;fillColor=#f8cecc;strokeColor=#b85450;" parent="1" vertex="1">
          <mxGeometry x="360" y="570" width="180" height="60" as="geometry" />
        </mxCell>
        <mxCell id="g8CfFO-CPbi9eOVrTbeS-21" style="edgeStyle=orthogonalEdgeStyle;rounded=0;orthogonalLoop=1;jettySize=auto;html=1;" parent="1" source="g8CfFO-CPbi9eOVrTbeS-18" edge="1">
          <mxGeometry relative="1" as="geometry">
            <mxPoint x="1150" y="600" as="targetPoint" />
          </mxGeometry>
        </mxCell>
        <mxCell id="g8CfFO-CPbi9eOVrTbeS-23" value="账单生成中" style="edgeLabel;html=1;align=center;verticalAlign=middle;resizable=0;points=[];" parent="g8CfFO-CPbi9eOVrTbeS-21" vertex="1" connectable="0">
          <mxGeometry x="-0.5478" y="2" relative="1" as="geometry">
            <mxPoint as="offset" />
          </mxGeometry>
        </mxCell>
        <mxCell id="g8CfFO-CPbi9eOVrTbeS-27" style="edgeStyle=orthogonalEdgeStyle;rounded=0;orthogonalLoop=1;jettySize=auto;html=1;entryX=0.5;entryY=0;entryDx=0;entryDy=0;" parent="1" source="g8CfFO-CPbi9eOVrTbeS-18" target="g8CfFO-CPbi9eOVrTbeS-26" edge="1">
          <mxGeometry relative="1" as="geometry" />
        </mxCell>
        <mxCell id="g8CfFO-CPbi9eOVrTbeS-28" value="账单生成失败" style="edgeLabel;html=1;align=center;verticalAlign=middle;resizable=0;points=[];" parent="g8CfFO-CPbi9eOVrTbeS-27" vertex="1" connectable="0">
          <mxGeometry x="-0.12" y="2" relative="1" as="geometry">
            <mxPoint as="offset" />
          </mxGeometry>
        </mxCell>
        <mxCell id="g8CfFO-CPbi9eOVrTbeS-29" style="edgeStyle=orthogonalEdgeStyle;rounded=0;orthogonalLoop=1;jettySize=auto;html=1;" parent="1" source="g8CfFO-CPbi9eOVrTbeS-18" edge="1">
          <mxGeometry relative="1" as="geometry">
            <mxPoint x="655" y="480" as="targetPoint" />
          </mxGeometry>
        </mxCell>
        <mxCell id="g8CfFO-CPbi9eOVrTbeS-31" value="获取下载地址成功" style="edgeLabel;html=1;align=center;verticalAlign=middle;resizable=0;points=[];" parent="g8CfFO-CPbi9eOVrTbeS-29" vertex="1" connectable="0">
          <mxGeometry x="-0.1305" y="2" relative="1" as="geometry">
            <mxPoint as="offset" />
          </mxGeometry>
        </mxCell>
        <mxCell id="g8CfFO-CPbi9eOVrTbeS-18" value="状态解析" style="rhombus;whiteSpace=wrap;html=1;" parent="1" vertex="1">
          <mxGeometry x="615" y="560" width="80" height="80" as="geometry" />
        </mxCell>
        <mxCell id="g8CfFO-CPbi9eOVrTbeS-22" value="结束" style="ellipse;whiteSpace=wrap;html=1;aspect=fixed;" parent="1" vertex="1">
          <mxGeometry x="1150" y="560" width="80" height="80" as="geometry" />
        </mxCell>
        <mxCell id="g8CfFO-CPbi9eOVrTbeS-60" style="edgeStyle=orthogonalEdgeStyle;rounded=0;orthogonalLoop=1;jettySize=auto;html=1;" parent="1" source="g8CfFO-CPbi9eOVrTbeS-26" target="g8CfFO-CPbi9eOVrTbeS-22" edge="1">
          <mxGeometry relative="1" as="geometry">
            <Array as="points">
              <mxPoint x="1190" y="750" />
            </Array>
          </mxGeometry>
        </mxCell>
        <mxCell id="g8CfFO-CPbi9eOVrTbeS-26" value="修改下载任务失败" style="shape=parallelogram;perimeter=parallelogramPerimeter;whiteSpace=wrap;html=1;fixedSize=1;" parent="1" vertex="1">
          <mxGeometry x="575" y="715" width="160" height="60" as="geometry" />
        </mxCell>
        <mxCell id="g8CfFO-CPbi9eOVrTbeS-33" value="" style="edgeStyle=orthogonalEdgeStyle;rounded=0;orthogonalLoop=1;jettySize=auto;html=1;" parent="1" source="g8CfFO-CPbi9eOVrTbeS-30" target="g8CfFO-CPbi9eOVrTbeS-32" edge="1">
          <mxGeometry relative="1" as="geometry" />
        </mxCell>
        <mxCell id="g8CfFO-CPbi9eOVrTbeS-30" value="保存文件" style="shape=parallelogram;perimeter=parallelogramPerimeter;whiteSpace=wrap;html=1;fixedSize=1;" parent="1" vertex="1">
          <mxGeometry x="580" y="420" width="160" height="60" as="geometry" />
        </mxCell>
        <mxCell id="g8CfFO-CPbi9eOVrTbeS-32" value="修改下载任务(正在导入)、保存文件目录" style="shape=parallelogram;perimeter=parallelogramPerimeter;whiteSpace=wrap;html=1;fixedSize=1;" parent="1" vertex="1">
          <mxGeometry x="840" y="410" width="280" height="80" as="geometry" />
        </mxCell>
        <mxCell id="g8CfFO-CPbi9eOVrTbeS-37" style="edgeStyle=orthogonalEdgeStyle;rounded=0;orthogonalLoop=1;jettySize=auto;html=1;" parent="1" source="g8CfFO-CPbi9eOVrTbeS-34" target="g8CfFO-CPbi9eOVrTbeS-36" edge="1">
          <mxGeometry relative="1" as="geometry" />
        </mxCell>
        <mxCell id="g8CfFO-CPbi9eOVrTbeS-38" value="读取文件" style="edgeLabel;html=1;align=center;verticalAlign=middle;resizable=0;points=[];" parent="g8CfFO-CPbi9eOVrTbeS-37" vertex="1" connectable="0">
          <mxGeometry x="-0.1882" y="1" relative="1" as="geometry">
            <mxPoint as="offset" />
          </mxGeometry>
        </mxCell>
        <mxCell id="g8CfFO-CPbi9eOVrTbeS-34" value="扫描正在导入的下载任务" style="whiteSpace=wrap;html=1;rounded=1;fillColor=#fff2cc;strokeColor=#d6b656;" parent="1" vertex="1">
          <mxGeometry x="170" y="900" width="120" height="60" as="geometry" />
        </mxCell>
        <mxCell id="g8CfFO-CPbi9eOVrTbeS-40" value="" style="edgeStyle=orthogonalEdgeStyle;rounded=0;orthogonalLoop=1;jettySize=auto;html=1;" parent="1" source="g8CfFO-CPbi9eOVrTbeS-36" target="g8CfFO-CPbi9eOVrTbeS-39" edge="1">
          <mxGeometry relative="1" as="geometry" />
        </mxCell>
        <mxCell id="g8CfFO-CPbi9eOVrTbeS-36" value="保存明细" style="shape=parallelogram;perimeter=parallelogramPerimeter;whiteSpace=wrap;html=1;fixedSize=1;" parent="1" vertex="1">
          <mxGeometry x="450" y="900" width="160" height="60" as="geometry" />
        </mxCell>
        <mxCell id="g8CfFO-CPbi9eOVrTbeS-42" value="" style="edgeStyle=orthogonalEdgeStyle;rounded=0;orthogonalLoop=1;jettySize=auto;html=1;" parent="1" source="g8CfFO-CPbi9eOVrTbeS-39" target="g8CfFO-CPbi9eOVrTbeS-41" edge="1">
          <mxGeometry relative="1" as="geometry" />
        </mxCell>
        <mxCell id="g8CfFO-CPbi9eOVrTbeS-39" value="生成日报表" style="shape=parallelogram;perimeter=parallelogramPerimeter;whiteSpace=wrap;html=1;fixedSize=1;" parent="1" vertex="1">
          <mxGeometry x="690" y="900" width="160" height="60" as="geometry" />
        </mxCell>
        <mxCell id="g8CfFO-CPbi9eOVrTbeS-55" value="" style="edgeStyle=orthogonalEdgeStyle;rounded=0;orthogonalLoop=1;jettySize=auto;html=1;" parent="1" source="g8CfFO-CPbi9eOVrTbeS-41" target="g8CfFO-CPbi9eOVrTbeS-54" edge="1">
          <mxGeometry relative="1" as="geometry" />
        </mxCell>
        <mxCell id="g8CfFO-CPbi9eOVrTbeS-41" value="修改下载任务(正在记账)" style="shape=parallelogram;perimeter=parallelogramPerimeter;whiteSpace=wrap;html=1;fixedSize=1;" parent="1" vertex="1">
          <mxGeometry x="930" y="900" width="160" height="60" as="geometry" />
        </mxCell>
        <mxCell id="g8CfFO-CPbi9eOVrTbeS-46" style="edgeStyle=orthogonalEdgeStyle;rounded=0;orthogonalLoop=1;jettySize=auto;html=1;exitX=0.1;exitY=0.5;exitDx=0;exitDy=0;exitPerimeter=0;" parent="1" source="g8CfFO-CPbi9eOVrTbeS-45" edge="1">
          <mxGeometry relative="1" as="geometry">
            <mxPoint x="625" y="1000" as="targetPoint" />
          </mxGeometry>
        </mxCell>
        <mxCell id="g8CfFO-CPbi9eOVrTbeS-45" value="" style="shape=curlyBracket;whiteSpace=wrap;html=1;rounded=1;flipH=1;labelPosition=right;verticalLabelPosition=middle;align=left;verticalAlign=middle;direction=north;size=0.5;" parent="1" vertex="1">
          <mxGeometry x="530" y="960" width="190" height="20" as="geometry" />
        </mxCell>
        <mxCell id="g8CfFO-CPbi9eOVrTbeS-49" value="" style="edgeStyle=orthogonalEdgeStyle;rounded=0;orthogonalLoop=1;jettySize=auto;html=1;" parent="1" source="g8CfFO-CPbi9eOVrTbeS-47" target="g8CfFO-CPbi9eOVrTbeS-48" edge="1">
          <mxGeometry relative="1" as="geometry" />
        </mxCell>
        <mxCell id="g8CfFO-CPbi9eOVrTbeS-50" value="是" style="edgeLabel;html=1;align=center;verticalAlign=middle;resizable=0;points=[];" parent="g8CfFO-CPbi9eOVrTbeS-49" vertex="1" connectable="0">
          <mxGeometry x="-0.0105" relative="1" as="geometry">
            <mxPoint as="offset" />
          </mxGeometry>
        </mxCell>
        <mxCell id="g8CfFO-CPbi9eOVrTbeS-47" value="是否发生异常" style="html=1;whiteSpace=wrap;aspect=fixed;shape=isoRectangle;" parent="1" vertex="1">
          <mxGeometry x="550" y="1000" width="150" height="90" as="geometry" />
        </mxCell>
        <mxCell id="g8CfFO-CPbi9eOVrTbeS-48" value="删除数据" style="whiteSpace=wrap;html=1;" parent="1" vertex="1">
          <mxGeometry x="795" y="1015" width="120" height="60" as="geometry" />
        </mxCell>
        <mxCell id="g8CfFO-CPbi9eOVrTbeS-57" value="" style="edgeStyle=orthogonalEdgeStyle;rounded=0;orthogonalLoop=1;jettySize=auto;html=1;" parent="1" source="g8CfFO-CPbi9eOVrTbeS-54" target="g8CfFO-CPbi9eOVrTbeS-56" edge="1">
          <mxGeometry relative="1" as="geometry" />
        </mxCell>
        <mxCell id="g8CfFO-CPbi9eOVrTbeS-54" value="提交记账" style="shape=parallelogram;perimeter=parallelogramPerimeter;whiteSpace=wrap;html=1;fixedSize=1;" parent="1" vertex="1">
          <mxGeometry x="1170" y="900" width="160" height="60" as="geometry" />
        </mxCell>
        <mxCell id="g8CfFO-CPbi9eOVrTbeS-58" style="edgeStyle=orthogonalEdgeStyle;rounded=0;orthogonalLoop=1;jettySize=auto;html=1;" parent="1" source="g8CfFO-CPbi9eOVrTbeS-56" target="g8CfFO-CPbi9eOVrTbeS-22" edge="1">
          <mxGeometry relative="1" as="geometry">
            <Array as="points">
              <mxPoint x="1490" y="750" />
              <mxPoint x="1190" y="750" />
            </Array>
          </mxGeometry>
        </mxCell>
        <mxCell id="g8CfFO-CPbi9eOVrTbeS-56" value="修改下载任务(记账成功、部分记账、记账失败)" style="shape=parallelogram;perimeter=parallelogramPerimeter;whiteSpace=wrap;html=1;fixedSize=1;" parent="1" vertex="1">
          <mxGeometry x="1410" y="900" width="160" height="60" as="geometry" />
        </mxCell>
        <mxCell id="g8CfFO-CPbi9eOVrTbeS-64" value="结束" style="ellipse;whiteSpace=wrap;html=1;aspect=fixed;" parent="1" vertex="1">
          <mxGeometry x="350" y="70" width="80" height="80" as="geometry" />
        </mxCell>
        <mxCell id="9xKX4gsyAwuPQTN25ZfJ-3" value="" style="edgeStyle=orthogonalEdgeStyle;rounded=0;orthogonalLoop=1;jettySize=auto;html=1;" edge="1" parent="1" source="9xKX4gsyAwuPQTN25ZfJ-1" target="9xKX4gsyAwuPQTN25ZfJ-2">
          <mxGeometry relative="1" as="geometry" />
        </mxCell>
        <mxCell id="9xKX4gsyAwuPQTN25ZfJ-1" value="开始" style="ellipse;whiteSpace=wrap;html=1;" vertex="1" parent="1">
          <mxGeometry x="330" y="1600" width="120" height="80" as="geometry" />
        </mxCell>
        <mxCell id="9xKX4gsyAwuPQTN25ZfJ-5" value="" style="edgeStyle=orthogonalEdgeStyle;rounded=0;orthogonalLoop=1;jettySize=auto;html=1;" edge="1" parent="1" source="9xKX4gsyAwuPQTN25ZfJ-2" target="9xKX4gsyAwuPQTN25ZfJ-4">
          <mxGeometry relative="1" as="geometry" />
        </mxCell>
        <mxCell id="9xKX4gsyAwuPQTN25ZfJ-2" value="查询T-1日订单成功的订单" style="whiteSpace=wrap;html=1;" vertex="1" parent="1">
          <mxGeometry x="330" y="1730" width="120" height="50" as="geometry" />
        </mxCell>
        <mxCell id="9xKX4gsyAwuPQTN25ZfJ-38" value="" style="edgeStyle=orthogonalEdgeStyle;rounded=0;orthogonalLoop=1;jettySize=auto;html=1;" edge="1" parent="1" source="9xKX4gsyAwuPQTN25ZfJ-4" target="9xKX4gsyAwuPQTN25ZfJ-37">
          <mxGeometry relative="1" as="geometry" />
        </mxCell>
        <mxCell id="9xKX4gsyAwuPQTN25ZfJ-39" value="是" style="edgeLabel;html=1;align=center;verticalAlign=middle;resizable=0;points=[];" vertex="1" connectable="0" parent="9xKX4gsyAwuPQTN25ZfJ-38">
          <mxGeometry x="0.1432" relative="1" as="geometry">
            <mxPoint as="offset" />
          </mxGeometry>
        </mxCell>
        <mxCell id="9xKX4gsyAwuPQTN25ZfJ-4" value="是否是充值系统供应商" style="rhombus;whiteSpace=wrap;html=1;" vertex="1" parent="1">
          <mxGeometry x="550" y="1715" width="110" height="80" as="geometry" />
        </mxCell>
        <mxCell id="9xKX4gsyAwuPQTN25ZfJ-41" value="" style="edgeStyle=orthogonalEdgeStyle;rounded=0;orthogonalLoop=1;jettySize=auto;html=1;" edge="1" parent="1" source="9xKX4gsyAwuPQTN25ZfJ-37" target="9xKX4gsyAwuPQTN25ZfJ-40">
          <mxGeometry relative="1" as="geometry" />
        </mxCell>
        <mxCell id="9xKX4gsyAwuPQTN25ZfJ-37" value="根据订单号查询拆单信息" style="whiteSpace=wrap;html=1;" vertex="1" parent="1">
          <mxGeometry x="545" y="1622.5" width="120" height="35" as="geometry" />
        </mxCell>
        <mxCell id="9xKX4gsyAwuPQTN25ZfJ-46" value="" style="edgeStyle=orthogonalEdgeStyle;rounded=0;orthogonalLoop=1;jettySize=auto;html=1;" edge="1" parent="1" source="9xKX4gsyAwuPQTN25ZfJ-40" target="9xKX4gsyAwuPQTN25ZfJ-45">
          <mxGeometry relative="1" as="geometry" />
        </mxCell>
        <mxCell id="9xKX4gsyAwuPQTN25ZfJ-55" value="否" style="edgeLabel;html=1;align=center;verticalAlign=middle;resizable=0;points=[];" vertex="1" connectable="0" parent="9xKX4gsyAwuPQTN25ZfJ-46">
          <mxGeometry x="-0.0389" y="-2" relative="1" as="geometry">
            <mxPoint as="offset" />
          </mxGeometry>
        </mxCell>
        <mxCell id="9xKX4gsyAwuPQTN25ZfJ-40" value="返回的list.size()==1" style="rhombus;whiteSpace=wrap;html=1;" vertex="1" parent="1">
          <mxGeometry x="565" y="1485" width="80" height="80" as="geometry" />
        </mxCell>
        <mxCell id="9xKX4gsyAwuPQTN25ZfJ-48" value="" style="edgeStyle=orthogonalEdgeStyle;rounded=0;orthogonalLoop=1;jettySize=auto;html=1;" edge="1" parent="1" source="9xKX4gsyAwuPQTN25ZfJ-45" target="9xKX4gsyAwuPQTN25ZfJ-47">
          <mxGeometry relative="1" as="geometry" />
        </mxCell>
        <mxCell id="9xKX4gsyAwuPQTN25ZfJ-49" value="存在且是成功的，且成功T-1" style="edgeLabel;html=1;align=center;verticalAlign=middle;resizable=0;points=[];" vertex="1" connectable="0" parent="9xKX4gsyAwuPQTN25ZfJ-48">
          <mxGeometry x="0.0211" y="3" relative="1" as="geometry">
            <mxPoint y="3" as="offset" />
          </mxGeometry>
        </mxCell>
        <mxCell id="9xKX4gsyAwuPQTN25ZfJ-53" value="" style="edgeStyle=orthogonalEdgeStyle;rounded=0;orthogonalLoop=1;jettySize=auto;html=1;" edge="1" parent="1" source="9xKX4gsyAwuPQTN25ZfJ-45" target="9xKX4gsyAwuPQTN25ZfJ-52">
          <mxGeometry relative="1" as="geometry" />
        </mxCell>
        <mxCell id="9xKX4gsyAwuPQTN25ZfJ-54" value="不存在或者失败或者成功时间在T天之后" style="edgeLabel;html=1;align=center;verticalAlign=middle;resizable=0;points=[];" vertex="1" connectable="0" parent="9xKX4gsyAwuPQTN25ZfJ-53">
          <mxGeometry x="0.0198" y="3" relative="1" as="geometry">
            <mxPoint as="offset" />
          </mxGeometry>
        </mxCell>
        <mxCell id="9xKX4gsyAwuPQTN25ZfJ-57" value="" style="edgeStyle=orthogonalEdgeStyle;rounded=0;orthogonalLoop=1;jettySize=auto;html=1;" edge="1" parent="1" source="9xKX4gsyAwuPQTN25ZfJ-45" target="9xKX4gsyAwuPQTN25ZfJ-52">
          <mxGeometry relative="1" as="geometry" />
        </mxCell>
        <mxCell id="9xKX4gsyAwuPQTN25ZfJ-45" value="根据返回的flowOrderId 查询order_cost_info" style="rhombus;whiteSpace=wrap;html=1;" vertex="1" parent="1">
          <mxGeometry x="725" y="1485" width="165" height="80" as="geometry" />
        </mxCell>
        <mxCell id="9xKX4gsyAwuPQTN25ZfJ-47" value="根据面值占比生成收入（最后一笔做减法）" style="whiteSpace=wrap;html=1;" vertex="1" parent="1">
          <mxGeometry x="1160" y="1495" width="120" height="60" as="geometry" />
        </mxCell>
        <mxCell id="9xKX4gsyAwuPQTN25ZfJ-79" style="edgeStyle=orthogonalEdgeStyle;rounded=0;orthogonalLoop=1;jettySize=auto;html=1;entryX=0;entryY=0.25;entryDx=0;entryDy=0;" edge="1" parent="1" source="9xKX4gsyAwuPQTN25ZfJ-52" target="9xKX4gsyAwuPQTN25ZfJ-47">
          <mxGeometry relative="1" as="geometry" />
        </mxCell>
        <mxCell id="9xKX4gsyAwuPQTN25ZfJ-80" style="edgeStyle=orthogonalEdgeStyle;rounded=0;orthogonalLoop=1;jettySize=auto;html=1;entryX=0;entryY=0.5;entryDx=0;entryDy=0;" edge="1" parent="1" source="9xKX4gsyAwuPQTN25ZfJ-52" target="9xKX4gsyAwuPQTN25ZfJ-63">
          <mxGeometry relative="1" as="geometry" />
        </mxCell>
        <mxCell id="9xKX4gsyAwuPQTN25ZfJ-52" value="生成暂估（数量=条数）" style="whiteSpace=wrap;html=1;" vertex="1" parent="1">
          <mxGeometry x="747.5" y="1340" width="120" height="60" as="geometry" />
        </mxCell>
        <mxCell id="9xKX4gsyAwuPQTN25ZfJ-56" value="报价取固定商品的报价，成本总价=面值*数量，成本单价=面值" style="text;html=1;align=center;verticalAlign=middle;resizable=0;points=[];autosize=1;strokeColor=none;fillColor=none;" vertex="1" parent="1">
          <mxGeometry x="615" y="1300" width="350" height="30" as="geometry" />
        </mxCell>
        <mxCell id="9xKX4gsyAwuPQTN25ZfJ-63" value="生成非成本=暂估信息" style="whiteSpace=wrap;html=1;" vertex="1" parent="1">
          <mxGeometry x="1050" y="1340" width="120" height="60" as="geometry" />
        </mxCell>
        <mxCell id="9xKX4gsyAwuPQTN25ZfJ-69" value="" style="edgeStyle=orthogonalEdgeStyle;rounded=0;orthogonalLoop=1;jettySize=auto;html=1;" edge="1" parent="1" source="9xKX4gsyAwuPQTN25ZfJ-67" target="9xKX4gsyAwuPQTN25ZfJ-68">
          <mxGeometry relative="1" as="geometry" />
        </mxCell>
        <mxCell id="9xKX4gsyAwuPQTN25ZfJ-67" value="开始" style="ellipse;whiteSpace=wrap;html=1;" vertex="1" parent="1">
          <mxGeometry x="330" y="2020" width="120" height="80" as="geometry" />
        </mxCell>
        <mxCell id="9xKX4gsyAwuPQTN25ZfJ-71" value="" style="edgeStyle=orthogonalEdgeStyle;rounded=0;orthogonalLoop=1;jettySize=auto;html=1;" edge="1" parent="1" source="9xKX4gsyAwuPQTN25ZfJ-68" target="9xKX4gsyAwuPQTN25ZfJ-70">
          <mxGeometry relative="1" as="geometry" />
        </mxCell>
        <mxCell id="9xKX4gsyAwuPQTN25ZfJ-68" value="查询logTime=T-1 的order_cost_info ，其logTime 与订单的successTime不在同一天的信息" style="whiteSpace=wrap;html=1;" vertex="1" parent="1">
          <mxGeometry x="530" y="2035" width="290" height="50" as="geometry" />
        </mxCell>
        <mxCell id="9xKX4gsyAwuPQTN25ZfJ-73" value="" style="edgeStyle=orthogonalEdgeStyle;rounded=0;orthogonalLoop=1;jettySize=auto;html=1;" edge="1" parent="1" source="9xKX4gsyAwuPQTN25ZfJ-70" target="9xKX4gsyAwuPQTN25ZfJ-72">
          <mxGeometry relative="1" as="geometry" />
        </mxCell>
        <mxCell id="9xKX4gsyAwuPQTN25ZfJ-70" value="生成暂估转化" style="whiteSpace=wrap;html=1;fillColor=#f8cecc;strokeColor=#b85450;" vertex="1" parent="1">
          <mxGeometry x="885" y="2030" width="120" height="60" as="geometry" />
        </mxCell>
        <mxCell id="9xKX4gsyAwuPQTN25ZfJ-72" value="生成固定商品的逆向暂估、非成本，数量" style="whiteSpace=wrap;html=1;" vertex="1" parent="1">
          <mxGeometry x="1120" y="2030" width="120" height="60" as="geometry" />
        </mxCell>
        <mxCell id="9xKX4gsyAwuPQTN25ZfJ-81" value="成本单价：面值" style="text;html=1;strokeColor=none;fillColor=none;align=center;verticalAlign=middle;whiteSpace=wrap;rounded=0;" vertex="1" parent="1">
          <mxGeometry x="1120" y="1980" width="120" height="40" as="geometry" />
        </mxCell>
        <mxCell id="9xKX4gsyAwuPQTN25ZfJ-84" value="" style="edgeStyle=orthogonalEdgeStyle;rounded=0;orthogonalLoop=1;jettySize=auto;html=1;" edge="1" parent="1" source="9xKX4gsyAwuPQTN25ZfJ-82" target="9xKX4gsyAwuPQTN25ZfJ-83">
          <mxGeometry relative="1" as="geometry" />
        </mxCell>
        <mxCell id="9xKX4gsyAwuPQTN25ZfJ-121" value="非转化" style="edgeLabel;html=1;align=center;verticalAlign=middle;resizable=0;points=[];" vertex="1" connectable="0" parent="9xKX4gsyAwuPQTN25ZfJ-84">
          <mxGeometry x="-0.1926" y="4" relative="1" as="geometry">
            <mxPoint as="offset" />
          </mxGeometry>
        </mxCell>
        <mxCell id="9xKX4gsyAwuPQTN25ZfJ-82" value="普通商品" style="ellipse;shape=doubleEllipse;whiteSpace=wrap;html=1;" vertex="1" parent="1">
          <mxGeometry x="-10" y="3356" width="100" height="60" as="geometry" />
        </mxCell>
        <mxCell id="9xKX4gsyAwuPQTN25ZfJ-86" value="" style="edgeStyle=orthogonalEdgeStyle;rounded=0;orthogonalLoop=1;jettySize=auto;html=1;" edge="1" parent="1" source="9xKX4gsyAwuPQTN25ZfJ-83" target="9xKX4gsyAwuPQTN25ZfJ-85">
          <mxGeometry relative="1" as="geometry" />
        </mxCell>
        <mxCell id="9xKX4gsyAwuPQTN25ZfJ-87" value="是" style="edgeLabel;html=1;align=center;verticalAlign=middle;resizable=0;points=[];" vertex="1" connectable="0" parent="9xKX4gsyAwuPQTN25ZfJ-86">
          <mxGeometry x="-0.2144" y="-3" relative="1" as="geometry">
            <mxPoint as="offset" />
          </mxGeometry>
        </mxCell>
        <mxCell id="9xKX4gsyAwuPQTN25ZfJ-101" value="" style="edgeStyle=orthogonalEdgeStyle;rounded=0;orthogonalLoop=1;jettySize=auto;html=1;" edge="1" parent="1" source="9xKX4gsyAwuPQTN25ZfJ-83" target="9xKX4gsyAwuPQTN25ZfJ-100">
          <mxGeometry relative="1" as="geometry" />
        </mxCell>
        <mxCell id="9xKX4gsyAwuPQTN25ZfJ-102" value="否" style="edgeLabel;html=1;align=center;verticalAlign=middle;resizable=0;points=[];" vertex="1" connectable="0" parent="9xKX4gsyAwuPQTN25ZfJ-101">
          <mxGeometry x="-0.0543" relative="1" as="geometry">
            <mxPoint as="offset" />
          </mxGeometry>
        </mxCell>
        <mxCell id="9xKX4gsyAwuPQTN25ZfJ-83" value="判断是否是动态金额" style="rhombus;whiteSpace=wrap;html=1;" vertex="1" parent="1">
          <mxGeometry x="180" y="3346" width="80" height="80" as="geometry" />
        </mxCell>
        <mxCell id="9xKX4gsyAwuPQTN25ZfJ-89" value="" style="edgeStyle=orthogonalEdgeStyle;rounded=0;orthogonalLoop=1;jettySize=auto;html=1;" edge="1" parent="1" source="9xKX4gsyAwuPQTN25ZfJ-85" target="9xKX4gsyAwuPQTN25ZfJ-88">
          <mxGeometry relative="1" as="geometry" />
        </mxCell>
        <mxCell id="9xKX4gsyAwuPQTN25ZfJ-85" value="获取采购合同商品结算价格类型" style="whiteSpace=wrap;html=1;" vertex="1" parent="1">
          <mxGeometry x="525" y="3356" width="120" height="60" as="geometry" />
        </mxCell>
        <mxCell id="9xKX4gsyAwuPQTN25ZfJ-91" value="" style="edgeStyle=orthogonalEdgeStyle;rounded=0;orthogonalLoop=1;jettySize=auto;html=1;" edge="1" parent="1" source="9xKX4gsyAwuPQTN25ZfJ-88" target="9xKX4gsyAwuPQTN25ZfJ-90">
          <mxGeometry relative="1" as="geometry" />
        </mxCell>
        <mxCell id="9xKX4gsyAwuPQTN25ZfJ-93" value="接口价" style="edgeLabel;html=1;align=center;verticalAlign=middle;resizable=0;points=[];" vertex="1" connectable="0" parent="9xKX4gsyAwuPQTN25ZfJ-91">
          <mxGeometry x="-0.1938" y="-4" relative="1" as="geometry">
            <mxPoint as="offset" />
          </mxGeometry>
        </mxCell>
        <mxCell id="9xKX4gsyAwuPQTN25ZfJ-95" value="" style="edgeStyle=orthogonalEdgeStyle;rounded=0;orthogonalLoop=1;jettySize=auto;html=1;" edge="1" parent="1" source="9xKX4gsyAwuPQTN25ZfJ-88" target="9xKX4gsyAwuPQTN25ZfJ-94">
          <mxGeometry relative="1" as="geometry" />
        </mxCell>
        <mxCell id="9xKX4gsyAwuPQTN25ZfJ-96" value="实际金额比例" style="edgeLabel;html=1;align=center;verticalAlign=middle;resizable=0;points=[];" vertex="1" connectable="0" parent="9xKX4gsyAwuPQTN25ZfJ-95">
          <mxGeometry x="-0.1037" y="-3" relative="1" as="geometry">
            <mxPoint as="offset" />
          </mxGeometry>
        </mxCell>
        <mxCell id="9xKX4gsyAwuPQTN25ZfJ-98" value="" style="edgeStyle=orthogonalEdgeStyle;rounded=0;orthogonalLoop=1;jettySize=auto;html=1;" edge="1" parent="1" source="9xKX4gsyAwuPQTN25ZfJ-88" target="9xKX4gsyAwuPQTN25ZfJ-97">
          <mxGeometry relative="1" as="geometry" />
        </mxCell>
        <mxCell id="9xKX4gsyAwuPQTN25ZfJ-99" value="其他类型" style="edgeLabel;html=1;align=center;verticalAlign=middle;resizable=0;points=[];" vertex="1" connectable="0" parent="9xKX4gsyAwuPQTN25ZfJ-98">
          <mxGeometry x="-0.3407" y="4" relative="1" as="geometry">
            <mxPoint as="offset" />
          </mxGeometry>
        </mxCell>
        <mxCell id="9xKX4gsyAwuPQTN25ZfJ-88" value="判断价格类型" style="rhombus;whiteSpace=wrap;html=1;" vertex="1" parent="1">
          <mxGeometry x="820" y="3346" width="80" height="80" as="geometry" />
        </mxCell>
        <mxCell id="9xKX4gsyAwuPQTN25ZfJ-90" value="含税金额：priceOrigin" style="whiteSpace=wrap;html=1;" vertex="1" parent="1">
          <mxGeometry x="1120" y="3356" width="120" height="60" as="geometry" />
        </mxCell>
        <mxCell id="9xKX4gsyAwuPQTN25ZfJ-94" value="含税金额：priceOrigin*contract_price" style="whiteSpace=wrap;html=1;" vertex="1" parent="1">
          <mxGeometry x="775" y="3230" width="170" height="60" as="geometry" />
        </mxCell>
        <mxCell id="9xKX4gsyAwuPQTN25ZfJ-97" value="错误" style="whiteSpace=wrap;html=1;" vertex="1" parent="1">
          <mxGeometry x="800" y="3526" width="120" height="60" as="geometry" />
        </mxCell>
        <mxCell id="9xKX4gsyAwuPQTN25ZfJ-100" value="&lt;p&gt;&amp;nbsp; &amp;nbsp; &amp;nbsp; &amp;nbsp;获取上一期期末单价（含税、未税）&amp;nbsp; &amp;nbsp; &amp;nbsp;&lt;/p&gt;" style="whiteSpace=wrap;html=1;fillColor=#f8cecc;strokeColor=#b85450;" vertex="1" parent="1">
          <mxGeometry x="70" y="3025" width="120" height="50" as="geometry" />
        </mxCell>
        <mxCell id="9xKX4gsyAwuPQTN25ZfJ-107" value="" style="edgeStyle=orthogonalEdgeStyle;rounded=0;orthogonalLoop=1;jettySize=auto;html=1;" edge="1" parent="1" source="9xKX4gsyAwuPQTN25ZfJ-103" target="9xKX4gsyAwuPQTN25ZfJ-106">
          <mxGeometry relative="1" as="geometry" />
        </mxCell>
        <mxCell id="9xKX4gsyAwuPQTN25ZfJ-120" value="非转化" style="edgeLabel;html=1;align=center;verticalAlign=middle;resizable=0;points=[];" vertex="1" connectable="0" parent="9xKX4gsyAwuPQTN25ZfJ-107">
          <mxGeometry x="-0.242" relative="1" as="geometry">
            <mxPoint x="46" y="46" as="offset" />
          </mxGeometry>
        </mxCell>
        <mxCell id="9xKX4gsyAwuPQTN25ZfJ-103" value="虚拟券" style="ellipse;shape=doubleEllipse;whiteSpace=wrap;html=1;" vertex="1" parent="1">
          <mxGeometry x="-10" y="3796" width="100" height="60" as="geometry" />
        </mxCell>
        <mxCell id="9xKX4gsyAwuPQTN25ZfJ-109" value="" style="edgeStyle=orthogonalEdgeStyle;rounded=0;orthogonalLoop=1;jettySize=auto;html=1;" edge="1" parent="1" source="9xKX4gsyAwuPQTN25ZfJ-106" target="9xKX4gsyAwuPQTN25ZfJ-108">
          <mxGeometry relative="1" as="geometry" />
        </mxCell>
        <mxCell id="9xKX4gsyAwuPQTN25ZfJ-110" value="是" style="edgeLabel;html=1;align=center;verticalAlign=middle;resizable=0;points=[];" vertex="1" connectable="0" parent="9xKX4gsyAwuPQTN25ZfJ-109">
          <mxGeometry x="-0.1144" y="3" relative="1" as="geometry">
            <mxPoint as="offset" />
          </mxGeometry>
        </mxCell>
        <mxCell id="9xKX4gsyAwuPQTN25ZfJ-115" style="edgeStyle=orthogonalEdgeStyle;rounded=0;orthogonalLoop=1;jettySize=auto;html=1;entryX=0;entryY=0.75;entryDx=0;entryDy=0;" edge="1" parent="1">
          <mxGeometry relative="1" as="geometry">
            <mxPoint x="297.5" y="3861" as="sourcePoint" />
            <mxPoint x="602.5" y="3416" as="targetPoint" />
            <Array as="points">
              <mxPoint x="297.5" y="3486" />
              <mxPoint x="602.5" y="3486" />
            </Array>
          </mxGeometry>
        </mxCell>
        <mxCell id="9xKX4gsyAwuPQTN25ZfJ-118" value="否" style="edgeLabel;html=1;align=center;verticalAlign=middle;resizable=0;points=[];" vertex="1" connectable="0" parent="9xKX4gsyAwuPQTN25ZfJ-115">
          <mxGeometry x="-0.3902" relative="1" as="geometry">
            <mxPoint as="offset" />
          </mxGeometry>
        </mxCell>
        <mxCell id="9xKX4gsyAwuPQTN25ZfJ-106" value="是否是动态金额" style="rhombus;whiteSpace=wrap;html=1;" vertex="1" parent="1">
          <mxGeometry x="260" y="3846" width="80" height="80" as="geometry" />
        </mxCell>
        <mxCell id="9xKX4gsyAwuPQTN25ZfJ-111" style="edgeStyle=orthogonalEdgeStyle;rounded=0;orthogonalLoop=1;jettySize=auto;html=1;entryX=0.641;entryY=0.957;entryDx=0;entryDy=0;entryPerimeter=0;" edge="1" parent="1" source="9xKX4gsyAwuPQTN25ZfJ-108" target="9xKX4gsyAwuPQTN25ZfJ-85">
          <mxGeometry relative="1" as="geometry">
            <Array as="points">
              <mxPoint x="600" y="3413" />
            </Array>
          </mxGeometry>
        </mxCell>
        <mxCell id="9xKX4gsyAwuPQTN25ZfJ-112" value="获取每一个真实商品的结算金额" style="edgeLabel;html=1;align=center;verticalAlign=middle;resizable=0;points=[];" vertex="1" connectable="0" parent="9xKX4gsyAwuPQTN25ZfJ-111">
          <mxGeometry x="-0.6089" y="1" relative="1" as="geometry">
            <mxPoint as="offset" />
          </mxGeometry>
        </mxCell>
        <mxCell id="9xKX4gsyAwuPQTN25ZfJ-114" value="" style="edgeStyle=orthogonalEdgeStyle;rounded=0;orthogonalLoop=1;jettySize=auto;html=1;" edge="1" parent="1" source="9xKX4gsyAwuPQTN25ZfJ-108" target="9xKX4gsyAwuPQTN25ZfJ-113">
          <mxGeometry relative="1" as="geometry" />
        </mxCell>
        <mxCell id="9xKX4gsyAwuPQTN25ZfJ-108" value="获取真实采购合同商品的信息" style="whiteSpace=wrap;html=1;" vertex="1" parent="1">
          <mxGeometry x="540" y="3856" width="120" height="60" as="geometry" />
        </mxCell>
        <mxCell id="9xKX4gsyAwuPQTN25ZfJ-113" value="汇总真实产品的总成本*每个商品的配置数量为虚拟券的成本（含税）" style="whiteSpace=wrap;html=1;" vertex="1" parent="1">
          <mxGeometry x="740" y="3856" width="220" height="60" as="geometry" />
        </mxCell>
        <mxCell id="9xKX4gsyAwuPQTN25ZfJ-119" value="&lt;font color=&quot;#ffb570&quot;&gt;虚拟券：&lt;/font&gt;如果下层商品为动态金额，则取虚拟券批次的金额 作为下层商品的priceOrigin" style="text;html=1;strokeColor=none;fillColor=none;align=center;verticalAlign=middle;whiteSpace=wrap;rounded=0;" vertex="1" parent="1">
          <mxGeometry x="220" y="3646" width="70" height="200" as="geometry" />
        </mxCell>
        <mxCell id="9xKX4gsyAwuPQTN25ZfJ-124" value="" style="edgeStyle=orthogonalEdgeStyle;rounded=0;orthogonalLoop=1;jettySize=auto;html=1;" edge="1" parent="1" source="9xKX4gsyAwuPQTN25ZfJ-122" target="9xKX4gsyAwuPQTN25ZfJ-123">
          <mxGeometry relative="1" as="geometry" />
        </mxCell>
        <mxCell id="9xKX4gsyAwuPQTN25ZfJ-125" value="发生成本转化收入" style="edgeLabel;html=1;align=center;verticalAlign=middle;resizable=0;points=[];" vertex="1" connectable="0" parent="9xKX4gsyAwuPQTN25ZfJ-124">
          <mxGeometry x="-0.2861" y="3" relative="1" as="geometry">
            <mxPoint as="offset" />
          </mxGeometry>
        </mxCell>
        <mxCell id="9xKX4gsyAwuPQTN25ZfJ-122" value="虚拟券" style="ellipse;shape=doubleEllipse;whiteSpace=wrap;html=1;" vertex="1" parent="1">
          <mxGeometry x="-20" y="4096" width="100" height="60" as="geometry" />
        </mxCell>
        <mxCell id="9xKX4gsyAwuPQTN25ZfJ-123" value="真实产品" style="ellipse;shape=doubleEllipse;whiteSpace=wrap;html=1;" vertex="1" parent="1">
          <mxGeometry x="284" y="4096" width="100" height="60" as="geometry" />
        </mxCell>
        <mxCell id="9xKX4gsyAwuPQTN25ZfJ-127" value="" style="shape=curlyBracket;whiteSpace=wrap;html=1;rounded=1;labelPosition=left;verticalLabelPosition=middle;align=right;verticalAlign=middle;" vertex="1" parent="1">
          <mxGeometry x="390" y="4066" width="20" height="120" as="geometry" />
        </mxCell>
        <mxCell id="9xKX4gsyAwuPQTN25ZfJ-129" value="金额占比" style="text;html=1;align=center;verticalAlign=middle;resizable=0;points=[];autosize=1;strokeColor=none;fillColor=none;" vertex="1" parent="1">
          <mxGeometry x="405" y="4054" width="70" height="30" as="geometry" />
        </mxCell>
        <mxCell id="9xKX4gsyAwuPQTN25ZfJ-130" value="父级商品成本总价" style="text;html=1;align=center;verticalAlign=middle;resizable=0;points=[];autosize=1;strokeColor=none;fillColor=none;" vertex="1" parent="1">
          <mxGeometry x="400" y="4164" width="120" height="30" as="geometry" />
        </mxCell>
        <mxCell id="9xKX4gsyAwuPQTN25ZfJ-131" value="成本总价=0，单价=0" style="text;html=1;align=center;verticalAlign=middle;resizable=0;points=[];autosize=1;strokeColor=none;fillColor=none;" vertex="1" parent="1">
          <mxGeometry x="405" y="4111" width="130" height="30" as="geometry" />
        </mxCell>
        <mxCell id="9xKX4gsyAwuPQTN25ZfJ-133" style="edgeStyle=orthogonalEdgeStyle;rounded=0;orthogonalLoop=1;jettySize=auto;html=1;" edge="1" parent="1" source="9xKX4gsyAwuPQTN25ZfJ-132" target="9xKX4gsyAwuPQTN25ZfJ-106">
          <mxGeometry relative="1" as="geometry" />
        </mxCell>
        <mxCell id="9xKX4gsyAwuPQTN25ZfJ-132" value="券包" style="ellipse;shape=doubleEllipse;whiteSpace=wrap;html=1;" vertex="1" parent="1">
          <mxGeometry x="-10" y="3906" width="100" height="60" as="geometry" />
        </mxCell>
        <mxCell id="9xKX4gsyAwuPQTN25ZfJ-134" value="&lt;font color=&quot;#ea6b66&quot;&gt;券包&lt;/font&gt;：不支持下层商品是动态金额的" style="text;html=1;strokeColor=none;fillColor=none;align=center;verticalAlign=middle;whiteSpace=wrap;rounded=0;" vertex="1" parent="1">
          <mxGeometry x="304" y="3676" width="60" height="120" as="geometry" />
        </mxCell>
        <mxCell id="9xKX4gsyAwuPQTN25ZfJ-135" value="&lt;font color=&quot;#ea6b66&quot;&gt;券包&lt;/font&gt;：不支持" style="text;html=1;strokeColor=none;fillColor=none;align=center;verticalAlign=middle;whiteSpace=wrap;rounded=0;" vertex="1" parent="1">
          <mxGeometry x="400" y="3866" width="60" height="120" as="geometry" />
        </mxCell>
        <mxCell id="9xKX4gsyAwuPQTN25ZfJ-137" style="edgeStyle=orthogonalEdgeStyle;rounded=0;orthogonalLoop=1;jettySize=auto;html=1;" edge="1" parent="1" source="9xKX4gsyAwuPQTN25ZfJ-136" target="9xKX4gsyAwuPQTN25ZfJ-123">
          <mxGeometry relative="1" as="geometry" />
        </mxCell>
        <mxCell id="9xKX4gsyAwuPQTN25ZfJ-136" value="券包" style="ellipse;shape=doubleEllipse;whiteSpace=wrap;html=1;" vertex="1" parent="1">
          <mxGeometry x="-20" y="4223" width="100" height="60" as="geometry" />
        </mxCell>
        <mxCell id="9xKX4gsyAwuPQTN25ZfJ-140" value="" style="edgeStyle=orthogonalEdgeStyle;rounded=0;orthogonalLoop=1;jettySize=auto;html=1;" edge="1" parent="1" source="9xKX4gsyAwuPQTN25ZfJ-138" target="9xKX4gsyAwuPQTN25ZfJ-139">
          <mxGeometry relative="1" as="geometry" />
        </mxCell>
        <mxCell id="9xKX4gsyAwuPQTN25ZfJ-148" value="主订单" style="edgeLabel;html=1;align=center;verticalAlign=middle;resizable=0;points=[];" vertex="1" connectable="0" parent="9xKX4gsyAwuPQTN25ZfJ-140">
          <mxGeometry x="-0.3654" y="1" relative="1" as="geometry">
            <mxPoint as="offset" />
          </mxGeometry>
        </mxCell>
        <mxCell id="9xKX4gsyAwuPQTN25ZfJ-151" value="" style="edgeStyle=orthogonalEdgeStyle;rounded=0;orthogonalLoop=1;jettySize=auto;html=1;" edge="1" parent="1" source="9xKX4gsyAwuPQTN25ZfJ-138">
          <mxGeometry relative="1" as="geometry">
            <mxPoint x="30" y="4576" as="targetPoint" />
          </mxGeometry>
        </mxCell>
        <mxCell id="9xKX4gsyAwuPQTN25ZfJ-152" value="子订单" style="edgeLabel;html=1;align=center;verticalAlign=middle;resizable=0;points=[];" vertex="1" connectable="0" parent="9xKX4gsyAwuPQTN25ZfJ-151">
          <mxGeometry x="-0.1472" y="-1" relative="1" as="geometry">
            <mxPoint as="offset" />
          </mxGeometry>
        </mxCell>
        <mxCell id="9xKX4gsyAwuPQTN25ZfJ-138" value="拆单" style="ellipse;shape=doubleEllipse;whiteSpace=wrap;html=1;" vertex="1" parent="1">
          <mxGeometry x="-20" y="4436" width="100" height="60" as="geometry" />
        </mxCell>
        <mxCell id="9xKX4gsyAwuPQTN25ZfJ-142" value="" style="edgeStyle=orthogonalEdgeStyle;rounded=0;orthogonalLoop=1;jettySize=auto;html=1;" edge="1" parent="1" source="9xKX4gsyAwuPQTN25ZfJ-139" target="9xKX4gsyAwuPQTN25ZfJ-141">
          <mxGeometry relative="1" as="geometry" />
        </mxCell>
        <mxCell id="9xKX4gsyAwuPQTN25ZfJ-147" value="否" style="edgeLabel;html=1;align=center;verticalAlign=middle;resizable=0;points=[];" vertex="1" connectable="0" parent="9xKX4gsyAwuPQTN25ZfJ-142">
          <mxGeometry x="-0.4698" y="-1" relative="1" as="geometry">
            <mxPoint as="offset" />
          </mxGeometry>
        </mxCell>
        <mxCell id="9xKX4gsyAwuPQTN25ZfJ-145" style="edgeStyle=orthogonalEdgeStyle;rounded=0;orthogonalLoop=1;jettySize=auto;html=1;" edge="1" parent="1" source="9xKX4gsyAwuPQTN25ZfJ-139" target="9xKX4gsyAwuPQTN25ZfJ-141">
          <mxGeometry relative="1" as="geometry">
            <Array as="points">
              <mxPoint x="220" y="4366" />
              <mxPoint x="400" y="4366" />
            </Array>
          </mxGeometry>
        </mxCell>
        <mxCell id="9xKX4gsyAwuPQTN25ZfJ-146" value="是" style="edgeLabel;html=1;align=center;verticalAlign=middle;resizable=0;points=[];" vertex="1" connectable="0" parent="9xKX4gsyAwuPQTN25ZfJ-145">
          <mxGeometry x="-0.228" y="-2" relative="1" as="geometry">
            <mxPoint as="offset" />
          </mxGeometry>
        </mxCell>
        <mxCell id="9xKX4gsyAwuPQTN25ZfJ-139" value="是否是动态金额" style="rhombus;whiteSpace=wrap;html=1;" vertex="1" parent="1">
          <mxGeometry x="170" y="4426" width="100" height="80" as="geometry" />
        </mxCell>
        <mxCell id="9xKX4gsyAwuPQTN25ZfJ-141" value="同普通商品" style="whiteSpace=wrap;html=1;" vertex="1" parent="1">
          <mxGeometry x="340" y="4436" width="120" height="60" as="geometry" />
        </mxCell>
        <mxCell id="9xKX4gsyAwuPQTN25ZfJ-154" style="edgeStyle=orthogonalEdgeStyle;rounded=0;orthogonalLoop=1;jettySize=auto;html=1;entryX=0.59;entryY=1.05;entryDx=0;entryDy=0;entryPerimeter=0;" edge="1" parent="1" source="9xKX4gsyAwuPQTN25ZfJ-153" target="9xKX4gsyAwuPQTN25ZfJ-141">
          <mxGeometry relative="1" as="geometry" />
        </mxCell>
        <mxCell id="9xKX4gsyAwuPQTN25ZfJ-156" value="是" style="edgeLabel;html=1;align=center;verticalAlign=middle;resizable=0;points=[];" vertex="1" connectable="0" parent="9xKX4gsyAwuPQTN25ZfJ-154">
          <mxGeometry x="-0.0791" relative="1" as="geometry">
            <mxPoint as="offset" />
          </mxGeometry>
        </mxCell>
        <mxCell id="9xKX4gsyAwuPQTN25ZfJ-155" style="edgeStyle=orthogonalEdgeStyle;rounded=0;orthogonalLoop=1;jettySize=auto;html=1;entryX=0.886;entryY=0.994;entryDx=0;entryDy=0;entryPerimeter=0;" edge="1" parent="1" source="9xKX4gsyAwuPQTN25ZfJ-153" target="9xKX4gsyAwuPQTN25ZfJ-141">
          <mxGeometry relative="1" as="geometry">
            <Array as="points">
              <mxPoint x="30" y="4676" />
              <mxPoint x="446" y="4676" />
            </Array>
          </mxGeometry>
        </mxCell>
        <mxCell id="9xKX4gsyAwuPQTN25ZfJ-157" value="否" style="edgeLabel;html=1;align=center;verticalAlign=middle;resizable=0;points=[];" vertex="1" connectable="0" parent="9xKX4gsyAwuPQTN25ZfJ-155">
          <mxGeometry x="-0.1363" y="1" relative="1" as="geometry">
            <mxPoint as="offset" />
          </mxGeometry>
        </mxCell>
        <mxCell id="9xKX4gsyAwuPQTN25ZfJ-153" value="是否是动态金额" style="rhombus;whiteSpace=wrap;html=1;" vertex="1" parent="1">
          <mxGeometry x="-10" y="4576" width="80" height="80" as="geometry" />
        </mxCell>
        <mxCell id="9xKX4gsyAwuPQTN25ZfJ-162" value="" style="edgeStyle=orthogonalEdgeStyle;rounded=0;orthogonalLoop=1;jettySize=auto;html=1;" edge="1" parent="1" source="9xKX4gsyAwuPQTN25ZfJ-160" target="9xKX4gsyAwuPQTN25ZfJ-161">
          <mxGeometry relative="1" as="geometry" />
        </mxCell>
        <mxCell id="9xKX4gsyAwuPQTN25ZfJ-160" value="汇算完成消息" style="shape=loopLimit;whiteSpace=wrap;html=1;" vertex="1" parent="1">
          <mxGeometry x="10" y="2710" width="100" height="80" as="geometry" />
        </mxCell>
        <mxCell id="9xKX4gsyAwuPQTN25ZfJ-165" value="" style="edgeStyle=orthogonalEdgeStyle;rounded=0;orthogonalLoop=1;jettySize=auto;html=1;" edge="1" parent="1" source="9xKX4gsyAwuPQTN25ZfJ-161" target="9xKX4gsyAwuPQTN25ZfJ-164">
          <mxGeometry relative="1" as="geometry" />
        </mxCell>
        <mxCell id="9xKX4gsyAwuPQTN25ZfJ-161" value="重新上一期成本单价、总价（含税、未税）" style="whiteSpace=wrap;html=1;" vertex="1" parent="1">
          <mxGeometry x="180" y="2720" width="120" height="60" as="geometry" />
        </mxCell>
        <mxCell id="9xKX4gsyAwuPQTN25ZfJ-187" value="" style="edgeStyle=orthogonalEdgeStyle;rounded=0;orthogonalLoop=1;jettySize=auto;html=1;" edge="1" parent="1" source="9xKX4gsyAwuPQTN25ZfJ-164" target="9xKX4gsyAwuPQTN25ZfJ-186">
          <mxGeometry relative="1" as="geometry" />
        </mxCell>
        <mxCell id="9xKX4gsyAwuPQTN25ZfJ-188" value="是" style="edgeLabel;html=1;align=center;verticalAlign=middle;resizable=0;points=[];" vertex="1" connectable="0" parent="9xKX4gsyAwuPQTN25ZfJ-187">
          <mxGeometry x="-0.0938" relative="1" as="geometry">
            <mxPoint as="offset" />
          </mxGeometry>
        </mxCell>
        <mxCell id="9xKX4gsyAwuPQTN25ZfJ-164" value="是否是非转化" style="rhombus;whiteSpace=wrap;html=1;" vertex="1" parent="1">
          <mxGeometry x="360" y="2710" width="80" height="80" as="geometry" />
        </mxCell>
        <mxCell id="9xKX4gsyAwuPQTN25ZfJ-168" value="" style="strokeWidth=2;html=1;shape=mxgraph.flowchart.annotation_2;align=left;labelPosition=right;pointerEvents=1;" vertex="1" parent="1">
          <mxGeometry x="440" y="2700" width="110" height="100" as="geometry" />
        </mxCell>
        <mxCell id="9xKX4gsyAwuPQTN25ZfJ-173" value="" style="edgeStyle=orthogonalEdgeStyle;rounded=0;orthogonalLoop=1;jettySize=auto;html=1;" edge="1" parent="1" source="9xKX4gsyAwuPQTN25ZfJ-169">
          <mxGeometry relative="1" as="geometry">
            <mxPoint x="770" y="2695" as="targetPoint" />
          </mxGeometry>
        </mxCell>
        <mxCell id="9xKX4gsyAwuPQTN25ZfJ-169" value="普通商品" style="text;html=1;align=center;verticalAlign=middle;resizable=0;points=[];autosize=1;strokeColor=none;fillColor=none;" vertex="1" parent="1">
          <mxGeometry x="547.5" y="2680" width="70" height="30" as="geometry" />
        </mxCell>
        <mxCell id="9xKX4gsyAwuPQTN25ZfJ-182" value="" style="edgeStyle=orthogonalEdgeStyle;rounded=0;orthogonalLoop=1;jettySize=auto;html=1;" edge="1" parent="1" target="9xKX4gsyAwuPQTN25ZfJ-181">
          <mxGeometry relative="1" as="geometry">
            <mxPoint x="645" y="2795" as="sourcePoint" />
          </mxGeometry>
        </mxCell>
        <mxCell id="9xKX4gsyAwuPQTN25ZfJ-170" value="券包、虚拟券" style="text;html=1;align=center;verticalAlign=middle;resizable=0;points=[];autosize=1;strokeColor=none;fillColor=none;" vertex="1" parent="1">
          <mxGeometry x="547.5" y="2780" width="100" height="30" as="geometry" />
        </mxCell>
        <mxCell id="9xKX4gsyAwuPQTN25ZfJ-177" value="" style="edgeStyle=orthogonalEdgeStyle;rounded=0;orthogonalLoop=1;jettySize=auto;html=1;" edge="1" parent="1" source="9xKX4gsyAwuPQTN25ZfJ-175" target="9xKX4gsyAwuPQTN25ZfJ-176">
          <mxGeometry relative="1" as="geometry" />
        </mxCell>
        <mxCell id="9xKX4gsyAwuPQTN25ZfJ-178" value="否" style="edgeLabel;html=1;align=center;verticalAlign=middle;resizable=0;points=[];" vertex="1" connectable="0" parent="9xKX4gsyAwuPQTN25ZfJ-177">
          <mxGeometry x="-0.1352" y="1" relative="1" as="geometry">
            <mxPoint as="offset" />
          </mxGeometry>
        </mxCell>
        <mxCell id="9xKX4gsyAwuPQTN25ZfJ-180" value="" style="edgeStyle=orthogonalEdgeStyle;rounded=0;orthogonalLoop=1;jettySize=auto;html=1;" edge="1" parent="1" source="9xKX4gsyAwuPQTN25ZfJ-175" target="9xKX4gsyAwuPQTN25ZfJ-179">
          <mxGeometry relative="1" as="geometry" />
        </mxCell>
        <mxCell id="9xKX4gsyAwuPQTN25ZfJ-175" value="是否是动态金额" style="rhombus;whiteSpace=wrap;html=1;" vertex="1" parent="1">
          <mxGeometry x="770" y="2655" width="80" height="80" as="geometry" />
        </mxCell>
        <mxCell id="9xKX4gsyAwuPQTN25ZfJ-176" value="同普通商品查询成本单价逻辑" style="whiteSpace=wrap;html=1;" vertex="1" parent="1">
          <mxGeometry x="970" y="2665" width="120" height="60" as="geometry" />
        </mxCell>
        <mxCell id="9xKX4gsyAwuPQTN25ZfJ-179" value="无需变动" style="whiteSpace=wrap;html=1;" vertex="1" parent="1">
          <mxGeometry x="750" y="2560" width="120" height="60" as="geometry" />
        </mxCell>
        <mxCell id="9xKX4gsyAwuPQTN25ZfJ-184" value="" style="edgeStyle=orthogonalEdgeStyle;rounded=0;orthogonalLoop=1;jettySize=auto;html=1;" edge="1" parent="1" source="9xKX4gsyAwuPQTN25ZfJ-181" target="9xKX4gsyAwuPQTN25ZfJ-183">
          <mxGeometry relative="1" as="geometry" />
        </mxCell>
        <mxCell id="9xKX4gsyAwuPQTN25ZfJ-185" value="否" style="edgeLabel;html=1;align=center;verticalAlign=middle;resizable=0;points=[];" vertex="1" connectable="0" parent="9xKX4gsyAwuPQTN25ZfJ-184">
          <mxGeometry x="-0.3299" y="3" relative="1" as="geometry">
            <mxPoint as="offset" />
          </mxGeometry>
        </mxCell>
        <mxCell id="9xKX4gsyAwuPQTN25ZfJ-198" style="edgeStyle=orthogonalEdgeStyle;rounded=0;orthogonalLoop=1;jettySize=auto;html=1;" edge="1" parent="1" source="9xKX4gsyAwuPQTN25ZfJ-181">
          <mxGeometry relative="1" as="geometry">
            <mxPoint x="737.5" y="2900" as="targetPoint" />
          </mxGeometry>
        </mxCell>
        <mxCell id="9xKX4gsyAwuPQTN25ZfJ-199" value="是" style="edgeLabel;html=1;align=center;verticalAlign=middle;resizable=0;points=[];" vertex="1" connectable="0" parent="9xKX4gsyAwuPQTN25ZfJ-198">
          <mxGeometry x="-0.1434" y="1" relative="1" as="geometry">
            <mxPoint as="offset" />
          </mxGeometry>
        </mxCell>
        <mxCell id="9xKX4gsyAwuPQTN25ZfJ-181" value="是否是动态金额" style="rhombus;whiteSpace=wrap;html=1;" vertex="1" parent="1">
          <mxGeometry x="697.5" y="2755" width="80" height="80" as="geometry" />
        </mxCell>
        <mxCell id="9xKX4gsyAwuPQTN25ZfJ-183" value="根据ext_json 中的下层商品信息进行查询单价" style="whiteSpace=wrap;html=1;" vertex="1" parent="1">
          <mxGeometry x="875" y="2765" width="120" height="60" as="geometry" />
        </mxCell>
        <mxCell id="9xKX4gsyAwuPQTN25ZfJ-186" value="" style="whiteSpace=wrap;html=1;" vertex="1" parent="1">
          <mxGeometry x="340" y="2880" width="120" height="60" as="geometry" />
        </mxCell>
        <mxCell id="9xKX4gsyAwuPQTN25ZfJ-189" value="" style="shape=curlyBracket;whiteSpace=wrap;html=1;rounded=1;labelPosition=left;verticalLabelPosition=middle;align=right;verticalAlign=middle;" vertex="1" parent="1">
          <mxGeometry x="1007.5" y="2750" width="20" height="120" as="geometry" />
        </mxCell>
        <mxCell id="9xKX4gsyAwuPQTN25ZfJ-190" value="成本项" style="text;html=1;align=center;verticalAlign=middle;resizable=0;points=[];autosize=1;strokeColor=none;fillColor=none;" vertex="1" parent="1">
          <mxGeometry x="1027.5" y="2735" width="60" height="30" as="geometry" />
        </mxCell>
        <mxCell id="9xKX4gsyAwuPQTN25ZfJ-191" value="暂估项" style="text;html=1;align=center;verticalAlign=middle;resizable=0;points=[];autosize=1;strokeColor=none;fillColor=none;" vertex="1" parent="1">
          <mxGeometry x="1027.5" y="2780" width="60" height="30" as="geometry" />
        </mxCell>
        <mxCell id="9xKX4gsyAwuPQTN25ZfJ-192" value="暂估转化项" style="text;html=1;align=center;verticalAlign=middle;resizable=0;points=[];autosize=1;strokeColor=none;fillColor=none;" vertex="1" parent="1">
          <mxGeometry x="1017.5" y="2820" width="80" height="30" as="geometry" />
        </mxCell>
        <mxCell id="9xKX4gsyAwuPQTN25ZfJ-193" value="非成本项" style="text;html=1;align=center;verticalAlign=middle;resizable=0;points=[];autosize=1;strokeColor=none;fillColor=none;" vertex="1" parent="1">
          <mxGeometry x="1022.5" y="2850" width="70" height="30" as="geometry" />
        </mxCell>
        <mxCell id="9xKX4gsyAwuPQTN25ZfJ-194" value="单价取绝对值" style="text;html=1;strokeColor=none;fillColor=none;align=center;verticalAlign=middle;whiteSpace=wrap;rounded=0;" vertex="1" parent="1">
          <mxGeometry x="190" y="2670" width="60" height="30" as="geometry" />
        </mxCell>
        <mxCell id="9xKX4gsyAwuPQTN25ZfJ-195" value="" style="shape=curlyBracket;whiteSpace=wrap;html=1;rounded=1;labelPosition=left;verticalLabelPosition=middle;align=right;verticalAlign=middle;" vertex="1" parent="1">
          <mxGeometry x="1177.5" y="2750" width="20" height="120" as="geometry" />
        </mxCell>
        <mxCell id="9xKX4gsyAwuPQTN25ZfJ-196" value="下层商品" style="text;html=1;align=center;verticalAlign=middle;resizable=0;points=[];autosize=1;strokeColor=none;fillColor=none;" vertex="1" parent="1">
          <mxGeometry x="1120" y="2795" width="70" height="30" as="geometry" />
        </mxCell>
        <mxCell id="9xKX4gsyAwuPQTN25ZfJ-200" value="根据ext_json中的下层商品信息进行查询单价" style="rounded=0;whiteSpace=wrap;html=1;" vertex="1" parent="1">
          <mxGeometry x="695" y="2900" width="120" height="60" as="geometry" />
        </mxCell>
        <mxCell id="9xKX4gsyAwuPQTN25ZfJ-205" value="" style="edgeStyle=orthogonalEdgeStyle;rounded=0;orthogonalLoop=1;jettySize=auto;html=1;" edge="1" parent="1" source="9xKX4gsyAwuPQTN25ZfJ-203" target="9xKX4gsyAwuPQTN25ZfJ-204">
          <mxGeometry relative="1" as="geometry" />
        </mxCell>
        <mxCell id="9xKX4gsyAwuPQTN25ZfJ-206" value="是" style="edgeLabel;html=1;align=center;verticalAlign=middle;resizable=0;points=[];" vertex="1" connectable="0" parent="9xKX4gsyAwuPQTN25ZfJ-205">
          <mxGeometry x="-0.0248" relative="1" as="geometry">
            <mxPoint as="offset" />
          </mxGeometry>
        </mxCell>
        <mxCell id="9xKX4gsyAwuPQTN25ZfJ-208" value="" style="edgeStyle=orthogonalEdgeStyle;rounded=0;orthogonalLoop=1;jettySize=auto;html=1;" edge="1" parent="1" source="9xKX4gsyAwuPQTN25ZfJ-203" target="9xKX4gsyAwuPQTN25ZfJ-207">
          <mxGeometry relative="1" as="geometry" />
        </mxCell>
        <mxCell id="9xKX4gsyAwuPQTN25ZfJ-211" value="否" style="edgeLabel;html=1;align=center;verticalAlign=middle;resizable=0;points=[];" vertex="1" connectable="0" parent="9xKX4gsyAwuPQTN25ZfJ-208">
          <mxGeometry x="-0.3179" relative="1" as="geometry">
            <mxPoint as="offset" />
          </mxGeometry>
        </mxCell>
        <mxCell id="9xKX4gsyAwuPQTN25ZfJ-203" value="采购合同商品的发票类型是否是专票" style="rhombus;whiteSpace=wrap;html=1;" vertex="1" parent="1">
          <mxGeometry x="270" y="3126" width="120" height="80" as="geometry" />
        </mxCell>
        <mxCell id="9xKX4gsyAwuPQTN25ZfJ-204" value="采购价格/（1+税率）*1.0672" style="whiteSpace=wrap;html=1;" vertex="1" parent="1">
          <mxGeometry x="270" y="3020" width="120" height="60" as="geometry" />
        </mxCell>
        <mxCell id="9xKX4gsyAwuPQTN25ZfJ-210" value="" style="edgeStyle=orthogonalEdgeStyle;rounded=0;orthogonalLoop=1;jettySize=auto;html=1;" edge="1" parent="1" source="9xKX4gsyAwuPQTN25ZfJ-207" target="9xKX4gsyAwuPQTN25ZfJ-209">
          <mxGeometry relative="1" as="geometry" />
        </mxCell>
        <mxCell id="9xKX4gsyAwuPQTN25ZfJ-212" value="是" style="edgeLabel;html=1;align=center;verticalAlign=middle;resizable=0;points=[];" vertex="1" connectable="0" parent="9xKX4gsyAwuPQTN25ZfJ-210">
          <mxGeometry x="-0.4964" y="2" relative="1" as="geometry">
            <mxPoint as="offset" />
          </mxGeometry>
        </mxCell>
        <mxCell id="9xKX4gsyAwuPQTN25ZfJ-214" value="" style="edgeStyle=orthogonalEdgeStyle;rounded=0;orthogonalLoop=1;jettySize=auto;html=1;" edge="1" parent="1" source="9xKX4gsyAwuPQTN25ZfJ-207" target="9xKX4gsyAwuPQTN25ZfJ-213">
          <mxGeometry relative="1" as="geometry" />
        </mxCell>
        <mxCell id="9xKX4gsyAwuPQTN25ZfJ-215" value="否" style="edgeLabel;html=1;align=center;verticalAlign=middle;resizable=0;points=[];" vertex="1" connectable="0" parent="9xKX4gsyAwuPQTN25ZfJ-214">
          <mxGeometry x="0.1036" relative="1" as="geometry">
            <mxPoint as="offset" />
          </mxGeometry>
        </mxCell>
        <mxCell id="9xKX4gsyAwuPQTN25ZfJ-207" value="销售收入项发票类型是否为专票" style="rhombus;whiteSpace=wrap;html=1;" vertex="1" parent="1">
          <mxGeometry x="470" y="3126" width="120" height="80" as="geometry" />
        </mxCell>
        <mxCell id="9xKX4gsyAwuPQTN25ZfJ-209" value="采购价格*1.0672" style="whiteSpace=wrap;html=1;" vertex="1" parent="1">
          <mxGeometry x="670" y="3136" width="120" height="60" as="geometry" />
        </mxCell>
        <mxCell id="9xKX4gsyAwuPQTN25ZfJ-213" value="" style="whiteSpace=wrap;html=1;" vertex="1" parent="1">
          <mxGeometry x="470" y="3015" width="120" height="60" as="geometry" />
        </mxCell>
      </root>
    </mxGraphModel>
  </diagram>
</mxfile>
